<?xml version="1.0" encoding="utf-8"?>
<!-- Generator: Adobe Illustrator 21.0.0, SVG Export Plug-In . SVG Version: 6.00 Build 0)  -->
<svg version="1.1" id="Слой_1" xmlns="http://www.w3.org/2000/svg" xmlns:xlink="http://www.w3.org/1999/xlink" x="0px" y="0px"
	 viewBox="0 0 101.5 8.9" style="enable-background:new 0 0 101.5 8.9;" xml:space="preserve">
<style type="text/css">
	.st0{clip-path:url(#SVGID_2_);fill:#FFFFFF;}
</style>
<g>
	<defs>
		<rect id="SVGID_1_" y="0" width="101.5" height="8.9"/>
	</defs>
	<clipPath id="SVGID_2_">
		<use xlink:href="#SVGID_1_"  style="overflow:visible;"/>
	</clipPath>
	<path class="st0" d="M2.1,6.6C1,6.6,0,5.6,0,4.5c0-1.2,1-2.1,2.1-2.1s2.1,1,2.1,2.1C4.3,5.6,3.3,6.6,2.1,6.6"/>
	<path class="st0" d="M101,5H3.7C3.4,5,3.2,4.7,3.2,4.5S3.4,4,3.7,4H101c0.3,0,0.5,0.2,0.5,0.5S101.3,5,101,5"/>
	<path class="st0" d="M97,8.9c-0.1,0-0.3,0-0.4-0.1c-0.2-0.2-0.2-0.5,0-0.7l4-4c0.2-0.2,0.5-0.2,0.7,0c0.2,0.2,0.2,0.5,0,0.7l-4,4
		C97.3,8.9,97.2,8.9,97,8.9"/>
	<path class="st0" d="M101,5c-0.1,0-0.3,0-0.4-0.1l-4-4c-0.2-0.2-0.2-0.5,0-0.7c0.2-0.2,0.5-0.2,0.7,0l4,4c0.2,0.2,0.2,0.5,0,0.7
		C101.2,4.9,101.1,5,101,5"/>
</g>
</svg>
