<?xml version="1.0" encoding="utf-8"?>
<!-- Generator: Adobe Illustrator 21.0.0, SVG Export Plug-In . SVG Version: 6.00 Build 0)  -->
<svg version="1.1" id="Слой_1" xmlns="http://www.w3.org/2000/svg" xmlns:xlink="http://www.w3.org/1999/xlink" x="0px" y="0px"
	 viewBox="0 0 409.6 409.6" style="enable-background:new 0 0 409.6 409.6;" xml:space="preserve">
<style type="text/css">
	.st0{clip-path:url(#SVGID_2_);fill:#FFFFFF;}
</style>
<g>
	<defs>
		<rect id="SVGID_1_" width="409.6" height="409.6"/>
	</defs>
	<clipPath id="SVGID_2_">
		<use xlink:href="#SVGID_1_"  style="overflow:visible;"/>
	</clipPath>
	<path class="st0" d="M377.6,0H32C14.4,0,0,14.4,0,32v262.4c0,17.6,14.4,32,32,32h112.7l-14.9,44.8H89.6c-3.5,0-6.4,2.9-6.4,6.4
		c0,17.6,14.4,32,32,32h179.2c17.6,0,32-14.4,32-32c0-3.5-2.9-6.4-6.4-6.4h-40.2l-14.9-44.8h112.7c17.6,0,32-14.4,32-32V32
		C409.6,14.4,395.2,0,377.6,0 M312.5,384c-2.6,7.5-9.8,12.8-18.1,12.8H115.2c-8.3,0-15.5-5.4-18.1-12.8H312.5z M266.3,371.2h-123
		l14.9-44.8h93.2L266.3,371.2z M396.8,294.4c0,10.6-8.6,19.2-19.2,19.2H32c-10.6,0-19.2-8.6-19.2-19.2v-32h384V294.4z M396.8,249.6
		h-384V32c0-10.6,8.6-19.2,19.2-19.2h345.6c10.6,0,19.2,8.6,19.2,19.2V249.6z"/>
	<path class="st0" d="M294.4,160h-1.2c0.7-2,1.2-4.1,1.2-6.4c0-10.6-8.6-19.2-19.2-19.2h-6.4c-4.9,0-9.4,1.9-12.8,5
		c-3.4-3.1-7.9-5-12.8-5h-6.4c-10.6,0-19.2,8.6-19.2,19.2c0,2.3,0.5,4.4,1.2,6.4h-1.2c-3.5,0-6.4,2.9-6.4,6.4v51.2
		c0,3.5,2.9,6.4,6.4,6.4h76.8c3.5,0,6.4-2.9,6.4-6.4v-51.2C300.8,162.9,297.9,160,294.4,160 M249.6,211.2H224v-38.4h25.6V211.2z
		 M249.6,160h-12.8c-3.5,0-6.4-2.9-6.4-6.4c0-3.5,2.9-6.4,6.4-6.4h6.4c3.5,0,6.4,2.9,6.4,6.4V160z M262.4,153.6
		c0-3.5,2.9-6.4,6.4-6.4h6.4c3.5,0,6.4,2.9,6.4,6.4c0,3.5-2.9,6.4-6.4,6.4h-12.8V153.6z M288,211.2h-25.6v-38.4H288V211.2z"/>
	<rect x="198.4" y="281.6" class="st0" width="12.8" height="12.8"/>
	<rect x="172.8" y="281.6" class="st0" width="12.8" height="12.8"/>
	<rect x="224" y="281.6" class="st0" width="12.8" height="12.8"/>
	<rect x="134.4" y="57.6" class="st0" width="57.6" height="12.8"/>
	<rect x="134.4" y="83.2" class="st0" width="57.6" height="12.8"/>
	<rect x="134.4" y="108.8" class="st0" width="57.6" height="12.8"/>
	<rect x="134.4" y="160" class="st0" width="57.6" height="12.8"/>
	<rect x="134.4" y="185.6" class="st0" width="57.6" height="12.8"/>
	<rect x="134.4" y="211.2" class="st0" width="57.6" height="12.8"/>
	<path class="st0" d="M300.5,113.2l-12.8-38.4c-0.9-2.6-3.3-4.4-6.1-4.4V64c0-14.1-11.5-25.6-25.6-25.6c-14.1,0-25.6,11.5-25.6,25.6
		v6.4c-2.8,0-5.2,1.8-6.1,4.4l-12.8,38.4c-0.7,2-0.3,4.1,0.9,5.8c1.2,1.7,3.1,2.7,5.2,2.7h76.8c2.1,0,4-1,5.2-2.7
		C300.8,117.3,301.1,115.1,300.5,113.2 M243.2,64c0-7.1,5.7-12.8,12.8-12.8c7.1,0,12.8,5.7,12.8,12.8v6.4h-25.6V64z M226.5,108.8
		l8.5-25.6h42l8.5,25.6H226.5z"/>
	<rect x="313.6" y="57.6" class="st0" width="64" height="12.8"/>
	<rect x="313.6" y="83.2" class="st0" width="64" height="12.8"/>
	<rect x="313.6" y="108.8" class="st0" width="64" height="12.8"/>
	<rect x="313.6" y="160" class="st0" width="64" height="12.8"/>
	<rect x="313.6" y="185.6" class="st0" width="64" height="12.8"/>
	<rect x="313.6" y="211.2" class="st0" width="64" height="12.8"/>
	<path class="st0" d="M115.2,32H89.6c-3.5,0-6.4,2.9-6.4,6.4c0,3.5-2.9,6.4-6.4,6.4c-3.5,0-6.4-2.9-6.4-6.4c0-3.5-2.9-6.4-6.4-6.4
		H38.4c-3.5,0-6.4,2.9-6.4,6.4V64c0,3.5,2.9,6.4,6.4,6.4h6.4v44.8c0,3.5,2.9,6.4,6.4,6.4h51.2c3.5,0,6.4-2.9,6.4-6.4V70.4h6.4
		c3.5,0,6.4-2.9,6.4-6.4V38.4C121.6,34.9,118.7,32,115.2,32 M108.8,57.6h-6.4c-3.5,0-6.4,2.9-6.4,6.4v44.8H57.6V64
		c0-3.5-2.9-6.4-6.4-6.4h-6.4V44.8h13.9c2.6,7.4,9.8,12.8,18.1,12.8c8.3,0,15.5-5.4,18.1-12.8h13.9V57.6z"/>
	<path class="st0" d="M115.2,166.4h-12.8c-1.7,0-3.3,0.7-4.5,1.9l-22.8,22.8l-15.4-5.2c-2.3-0.8-4.8-0.2-6.5,1.6l-25.6,25.6
		c-1.8,1.8-2.4,4.6-1.4,7c1,2.4,3.3,3.9,5.9,3.9h57.6c1.7,0,3.3-0.7,4.5-1.9l14.7-14.7V224h12.8v-51.2
		C121.6,169.3,118.7,166.4,115.2,166.4 M108.8,189.4l-21.9,21.8H47.4l11.9-11.9l15.4,5.2c2.3,0.8,4.8,0.2,6.5-1.5l23.7-23.7h3.8
		V189.4z"/>
</g>
</svg>
