<?xml version="1.0" encoding="utf-8"?>
<!-- Generator: Adobe Illustrator 21.0.0, SVG Export Plug-In . SVG Version: 6.00 Build 0)  -->
<svg version="1.1" id="Слой_1" xmlns="http://www.w3.org/2000/svg" xmlns:xlink="http://www.w3.org/1999/xlink" x="0px" y="0px"
	 viewBox="0 0 409.6 407.6" style="enable-background:new 0 0 409.6 407.6;" xml:space="preserve">
<style type="text/css">
	.st0{clip-path:url(#SVGID_2_);fill:#FFFFFF;}
</style>
<g>
	<defs>
		<rect id="SVGID_1_" width="409.6" height="407.6"/>
	</defs>
	<clipPath id="SVGID_2_">
		<use xlink:href="#SVGID_1_"  style="overflow:visible;"/>
	</clipPath>
	<path class="st0" d="M377.6,19.2H163.7C158.7,7.7,147.3,0,134.4,0H32C14.4,0,0,14.4,0,32v224c0,17.6,14.4,32,32,32h102.4
		c17.6,0,32-14.4,32-32v-38.4h6.4c1.5,0,2.9-0.5,4.1-1.5l36.6-30.5h164.1c17.6,0,32-14.4,32-32V51.2
		C409.6,33.6,395.2,19.2,377.6,19.2 M160,32h5.8c-2.6,12.5-12.4,22.4-25,25v-5.8C140.8,40.6,149.4,32,160,32 M12.8,32
		c0-10.6,8.6-19.2,19.2-19.2h102.4c6.4,0,12.1,3.2,15.7,8.1c-8.7,2.9-15.7,9.2-19.3,17.5H12.8V32z M12.8,51.2H128v64H89.6
		c-1.7,0-3.3,0.7-4.5,1.9l-23.7,23.7h-3.8c0-3.5-2.9-6.4-6.4-6.4H12.8V51.2z M12.8,147.2h32v64h-32V147.2z M153.6,256
		c0,10.6-8.6,19.2-19.2,19.2H32c-10.6,0-19.2-8.6-19.2-19.2v-6.4h140.8V256z M153.6,236.8H12.8V224h38.4c3.5,0,6.4-2.9,6.4-6.4h96
		V236.8z M170.5,204.8H57.6v-51.2H64c1.7,0,3.3-0.7,4.5-1.9L92.2,128h109.4c5.3,0,9.6,4.3,9.6,9.6s-4.3,9.6-9.6,9.6H160
		c-1.7,0-3.3,0.7-4.5,1.9l-25.6,25.6c-1.8,1.8-2.4,4.6-1.4,7c1,2.4,3.3,3.9,5.9,3.9h59.1L170.5,204.8z M396.8,153.6
		c0,10.6-8.6,19.2-19.2,19.2h-5.8c2.6-12.5,12.4-22.4,25-25V153.6z M396.8,134.9c-19.6,2.8-35.1,18.3-37.9,37.9H149.8l12.8-12.8h39
		c12.4,0,22.4-10,22.4-22.4c0-12.4-10-22.4-22.4-22.4h-60.8V69.9c19.6-2.8,35.1-18.3,37.9-37.9h180.2c2.8,19.6,18.3,35.1,37.9,37.9
		V134.9z M396.8,57c-12.5-2.5-22.4-12.4-25-25h5.8c10.6,0,19.2,8.6,19.2,19.2V57z"/>
	<path class="st0" d="M288,83.2V80c0-10.1-3.6-18.6-12.8-21.4V44.8h-12.8v13.8c-9.2,2.8-19.2,11.2-19.2,21.4v6.4
		c0,12.4,10,22.4,22.4,22.4c5.3,0,9.6,4.3,9.6,9.6v6.4c0,5.3-4.3,9.6-9.6,9.6s-9.6-4.3-9.6-9.6v-3.2h-12.8v3.2
		c0,10.1,10,18.6,19.2,21.4V160h12.8v-13.8c9.2-2.8,12.8-11.2,12.8-21.4v-6.4c0-12.4-10-22.4-22.4-22.4c-5.3,0-9.6-4.3-9.6-9.6V80
		c0-5.3,4.3-9.6,9.6-9.6s9.6,4.3,9.6,9.6v3.2H288z"/>
	<path class="st0" d="M354.6,281.6h55v-12.8H352c-1.7,0-3.3,0.7-4.5,1.9l-36,36.1l-126.9-22.1c-6.1-1-12.3,0.6-17,4.6
		c-4.7,4-7.5,9.8-7.5,16c0,7.4,4,14.3,10.4,18.1L310,404.8c3.3,1.9,6.9,2.9,10.5,2.9c3.2,0,6.4-0.7,9.4-2.2l68.4-34.2h11.3v-12.8
		h-12.8c-1,0-2,0.2-2.9,0.7L324.2,394c-2.5,1.2-5.4,1.1-7.7-0.3l-139.6-81.4c-2.5-1.4-4-4.1-4-7c0-2.4,1.1-4.7,2.9-6.2
		c1.8-1.5,4.3-2.2,6.6-1.8l118.1,20.5l-5.2,5.2c-4.6,4.6-7.2,10.8-7.2,17.3c0,13.5,11,24.5,24.5,24.5c6.5,0,12.7-2.5,17.3-7.2
		l33.1-33.1l-9-9.1l-33.1,33.1c-2.2,2.2-5.2,3.4-8.3,3.4c-6.5,0-11.7-5.2-11.7-11.7c0-3.1,1.2-6.1,3.4-8.3L354.6,281.6z"/>
	<rect x="300.8" y="198.4" class="st0" width="12.8" height="12.8"/>
	<rect x="300.8" y="224" class="st0" width="12.8" height="12.8"/>
	<rect x="326.4" y="198.4" class="st0" width="12.8" height="12.8"/>
	<rect x="275.2" y="198.4" class="st0" width="12.8" height="12.8"/>
	<rect x="275.2" y="224" class="st0" width="12.8" height="12.8"/>
	<rect x="275.2" y="249.6" class="st0" width="12.8" height="12.8"/>
	<rect x="249.6" y="198.4" class="st0" width="12.8" height="12.8"/>
	<rect x="249.6" y="224" class="st0" width="12.8" height="12.8"/>
	<rect x="224" y="198.4" class="st0" width="12.8" height="12.8"/>
</g>
</svg>
