<?xml version="1.0" encoding="utf-8"?>
<!-- Generator: Adobe Illustrator 21.0.0, SVG Export Plug-In . SVG Version: 6.00 Build 0)  -->
<svg version="1.1" id="Слой_1" xmlns="http://www.w3.org/2000/svg" xmlns:xlink="http://www.w3.org/1999/xlink" x="0px" y="0px"
	 viewBox="0 0 409.6 409.6" style="enable-background:new 0 0 409.6 409.6;" xml:space="preserve">
<style type="text/css">
	.st0{clip-path:url(#SVGID_2_);fill:#FFFFFF;}
</style>
<g>
	<defs>
		<rect id="SVGID_1_" width="409.6" height="409.6"/>
	</defs>
	<clipPath id="SVGID_2_">
		<use xlink:href="#SVGID_1_"  style="overflow:visible;"/>
	</clipPath>
	<path class="st0" d="M403.2,364.8h-12.8V160c0-17.6-14.4-32-32-32H224V94.8c5-1.8,9-5.5,11.1-10.3l66.5,16.6
		c2.3,8.1,9.6,14,18.4,14c10.6,0,19.2-8.6,19.2-19.2V19.2C339.2,8.6,330.6,0,320,0c-8.8,0-16.1,6-18.4,14l-66.5,16.6
		c-3-6.7-9.7-11.4-17.5-11.4H192c-7.8,0-14.5,4.7-17.5,11.4L108,14C105.7,6,98.4,0,89.6,0C79,0,70.4,8.6,70.4,19.2V96
		c0,10.6,8.6,19.2,19.2,19.2c8.8,0,16.1-6,18.4-14l66.5-16.6c2.1,4.8,6.2,8.5,11.1,10.3V128H51.2c-17.6,0-32,14.4-32,32v204.8H6.4
		c-3.5,0-6.4,2.9-6.4,6.4v6.4c0,17.6,14.4,32,32,32h345.6c17.6,0,32-14.4,32-32v-6.4C409.6,367.7,406.7,364.8,403.2,364.8
		 M313.6,19.2c0-3.5,2.9-6.4,6.4-6.4c3.5,0,6.4,2.9,6.4,6.4V96c0,3.5-2.9,6.4-6.4,6.4c-3.5,0-6.4-2.9-6.4-6.4V19.2z M236.8,43.4
		l64-16v60.4l-64-16V43.4z M96,96c0,3.5-2.9,6.4-6.4,6.4c-3.5,0-6.4-2.9-6.4-6.4V19.2c0-3.5,2.9-6.4,6.4-6.4c3.5,0,6.4,2.9,6.4,6.4
		V96z M172.8,71.8l-64,16V27.4l64,16V71.8z M185.6,38.4c0-3.5,2.9-6.4,6.4-6.4h25.6c3.5,0,6.4,2.9,6.4,6.4v38.4
		c0,3.5-2.9,6.4-6.4,6.4H192c-3.5,0-6.4-2.9-6.4-6.4V38.4z M211.2,128h-12.8V96h12.8V128z M32,160c0-10.6,8.6-19.2,19.2-19.2h307.2
		c10.6,0,19.2,8.6,19.2,19.2v204.8H32V160z M377.6,396.8H32c-10.6,0-19.2-8.6-19.2-19.2h384C396.8,388.2,388.2,396.8,377.6,396.8"/>
	<path class="st0" d="M358.4,153.6H51.2c-3.5,0-6.4,2.9-6.4,6.4v185.6c0,3.5,2.9,6.4,6.4,6.4h307.2c3.5,0,6.4-2.9,6.4-6.4V160
		C364.8,156.5,361.9,153.6,358.4,153.6 M352,339.2H57.6V166.4H352V339.2z"/>
	<path class="st0" d="M366,33.9l-9.8,8.2c6.8,8.1,5.7,20.2-2.4,27.1l8.2,9.8C375.6,67.6,377.4,47.4,366,33.9"/>
	<path class="st0" d="M385.6,17.4l-9.8,8.2c15.9,18.9,13.4,47.2-5.5,63.1l8.2,9.8C402.9,78.1,406.1,41.7,385.6,17.4"/>
	<path class="st0" d="M62.1,46l-8.2-9.8C40.4,47.6,38.6,67.8,50,81.3l9.8-8.2C53,65,54,52.8,62.1,46"/>
	<path class="st0" d="M45.7,26.4l-8.2-9.8C13.1,37.1,9.9,73.5,30.4,97.8l9.8-8.2C24.3,70.6,26.7,42.3,45.7,26.4"/>
	<path class="st0" d="M159,182.2c-1.2-1.9-3.2-3-5.4-3H128c-3.5,0-6.4,2.9-6.4,6.4c0,3.5-2.9,6.4-6.4,6.4c-3.5,0-6.4-2.9-6.4-6.4
		c0-3.5-2.9-6.4-6.4-6.4H76.8c-2.2,0-4.3,1.2-5.4,3c-1.2,1.9-1.3,4.2-0.3,6.2l12.1,24.2v49.7c0,3.5,2.9,6.4,6.4,6.4h51.2
		c3.5,0,6.4-2.9,6.4-6.4v-49.7l12.1-24.3C160.3,186.5,160.2,184.1,159,182.2 M135.1,208.3c-0.4,0.9-0.7,1.9-0.7,2.9V256H96v-44.8
		c0-1-0.2-2-0.7-2.9L87.2,192h9.9c2.6,7.4,9.8,12.8,18.1,12.8c8.3,0,15.5-5.4,18.1-12.8h9.9L135.1,208.3z"/>
	<path class="st0" d="M262.4,179.2h-25.6c-3.5,0-6.4,2.9-6.4,6.4c0,3.5-2.9,6.4-6.4,6.4c-3.5,0-6.4-2.9-6.4-6.4
		c0-3.5-2.9-6.4-6.4-6.4h-25.6c-3.5,0-6.4,2.9-6.4,6.4v25.6c0,3.5,2.9,6.4,6.4,6.4h6.4v44.8c0,3.5,2.9,6.4,6.4,6.4h51.2
		c3.5,0,6.4-2.9,6.4-6.4v-44.8h6.4c3.5,0,6.4-2.9,6.4-6.4v-25.6C268.8,182.1,265.9,179.2,262.4,179.2 M256,204.8h-6.4
		c-3.5,0-6.4,2.9-6.4,6.4V256h-38.4v-44.8c0-3.5-2.9-6.4-6.4-6.4H192V192h13.9c2.6,7.4,9.8,12.8,18.1,12.8c8.3,0,15.5-5.4,18.1-12.8
		H256V204.8z"/>
	<rect x="83.2" y="281.6" class="st0" width="12.8" height="12.8"/>
	<rect x="108.8" y="281.6" class="st0" width="12.8" height="12.8"/>
	<rect x="134.4" y="281.6" class="st0" width="12.8" height="12.8"/>
	<rect x="192" y="281.6" class="st0" width="12.8" height="12.8"/>
	<rect x="217.6" y="281.6" class="st0" width="12.8" height="12.8"/>
	<rect x="243.2" y="281.6" class="st0" width="12.8" height="12.8"/>
	<rect x="83.2" y="307.2" class="st0" width="64" height="12.8"/>
	<rect x="192" y="307.2" class="st0" width="64" height="12.8"/>
	<path class="st0" d="M309.3,271.5l10.2-5.1c2.3-1.2,3.7-3.6,3.5-6.2c-0.2-2.6-1.9-4.8-4.4-5.6L277.9,241c-2.3-0.8-4.8-0.2-6.5,1.5
		c-1.7,1.7-2.3,4.3-1.6,6.5l13.6,40.7c0.8,2.5,3,4.2,5.6,4.4c0.2,0,0.3,0,0.5,0c2.4,0,4.6-1.4,5.7-3.5l5.1-10.2l20.9,20.9l9.1-9
		L309.3,271.5z M295.7,264c-1.2,0.6-2.2,1.6-2.9,2.9l-2.1,4.3l-4.6-13.9l13.9,4.6L295.7,264z"/>
</g>
</svg>
