<?xml version="1.0" encoding="utf-8"?>
<!-- Generator: Adobe Illustrator 21.0.0, SVG Export Plug-In . SVG Version: 6.00 Build 0)  -->
<svg version="1.1" id="Слой_1" xmlns="http://www.w3.org/2000/svg" xmlns:xlink="http://www.w3.org/1999/xlink" x="0px" y="0px"
	 viewBox="0 0 409.6 409.6" style="enable-background:new 0 0 409.6 409.6;" xml:space="preserve">
<style type="text/css">
	.st0{clip-path:url(#SVGID_2_);fill:#FFFFFF;}
</style>
<g>
	<defs>
		<rect id="SVGID_1_" width="409.6" height="409.6"/>
	</defs>
	<clipPath id="SVGID_2_">
		<use xlink:href="#SVGID_1_"  style="overflow:visible;"/>
	</clipPath>
	<path class="st0" d="M364.8,256c-28.1,0-44.8,19.1-44.8,51.2c0,23.6,18.5,49.7,30.5,64H38.4c-14.1,0-25.6-11.5-25.6-25.6
		c0-14.1,11.5-25.6,25.6-25.6h211.2c21.2,0,38.4-17.2,38.4-38.4c0-21.2-17.2-38.4-38.4-38.4h-128c-14.1,0-25.6-11.5-25.6-25.6
		c0-14.1,11.5-25.6,25.6-25.6h249.6c21.2,0,38.4-17.2,38.4-38.4c0-21.2-17.2-38.4-38.4-38.4h-67.6c1.2-2,2.1-4.1,2.7-6.4h20.1
		c3.5,0,6.4-2.9,6.4-6.4V64c0-3.5-2.9-6.4-6.4-6.4h-14.9l-11.2-28c-1-2.4-3.3-4-5.9-4h-25.6V6.4c0-3.5-2.9-6.4-6.4-6.4H160
		c-3.5,0-6.4,2.9-6.4,6.4v38.4h-12.8v12.8h12.8v12.8H128v12.8h25.6v19.2c0,3.5,2.9,6.4,6.4,6.4h20.1c0.6,2.3,1.5,4.4,2.6,6.4H59.1
		c11.9-14.3,30.5-40.4,30.5-64C89.6,19.1,72.9,0,44.8,0S0,19.1,0,51.2c0,34.1,38.6,73.3,40.3,74.9c1.2,1.2,2.8,1.9,4.5,1.9h326.4
		c14.1,0,25.6,11.5,25.6,25.6c0,14.1-11.5,25.6-25.6,25.6H121.6c-21.2,0-38.4,17.2-38.4,38.4c0,21.2,17.2,38.4,38.4,38.4h128
		c14.1,0,25.6,11.5,25.6,25.6c0,14.1-11.5,25.6-25.6,25.6H38.4C17.2,307.2,0,324.4,0,345.6C0,366.8,17.2,384,38.4,384h326.4
		c1.7,0,3.3-0.7,4.5-1.9c1.6-1.7,40.3-40.9,40.3-74.9C409.6,275.1,392.9,256,364.8,256 M12.8,51.2c0-24.8,11.4-38.4,32-38.4
		c20.6,0,32,13.6,32,38.4c0,22.5-22.2,50-32,61C35,101.2,12.8,73.7,12.8,51.2 M204.8,115.2c-7.1,0-12.8-5.7-12.8-12.8
		c0-7.1,5.7-12.8,12.8-12.8s12.8,5.7,12.8,12.8C217.6,109.5,211.9,115.2,204.8,115.2 M225.5,87.4c-0.7-1-1.4-1.9-2.3-2.7
		c-0.4-0.4-0.8-0.7-1.2-1.1c-0.7-0.7-1.5-1.3-2.3-1.9c-0.5-0.3-1-0.7-1.5-1c-0.8-0.5-1.7-1-2.6-1.4c-0.5-0.3-1-0.5-1.6-0.7
		c-1-0.4-2-0.7-3-0.9c-0.5-0.1-1-0.3-1.5-0.4c-1.6-0.3-3.1-0.5-4.8-0.5s-3.2,0.2-4.8,0.5c-0.5,0.1-1,0.3-1.5,0.4
		c-1,0.3-2.1,0.6-3,0.9c-0.5,0.2-1.1,0.5-1.6,0.7c-0.9,0.4-1.7,0.9-2.6,1.4c-0.5,0.3-1,0.6-1.5,1c-0.8,0.6-1.6,1.2-2.3,1.9
		c-0.4,0.4-0.8,0.7-1.2,1.1c-0.8,0.9-1.6,1.8-2.3,2.7c-0.2,0.3-0.4,0.5-0.6,0.8c-0.8,1.3-1.6,2.6-2.2,4c-0.2,0.4-0.3,0.8-0.4,1.2
		c-0.3,0.8-0.7,1.7-0.9,2.5h-13.6V12.8H256V96h-26.4c-0.2-0.9-0.6-1.7-0.9-2.5c-0.2-0.4-0.3-0.8-0.4-1.2c-0.6-1.4-1.3-2.8-2.2-4
		C225.9,87.9,225.7,87.7,225.5,87.4 M226.8,115.2c1.2-2,2.1-4.1,2.7-6.4h27.4c0.6,2.3,1.5,4.4,2.6,6.4H226.8z M281.6,115.2
		c-7.1,0-12.8-5.7-12.8-12.8c0-7.1,5.7-12.8,12.8-12.8c7.1,0,12.8,5.7,12.8,12.8C294.4,109.5,288.7,115.2,281.6,115.2 M302.3,87.4
		c-0.7-1-1.4-1.9-2.3-2.7c-0.4-0.4-0.8-0.7-1.2-1.1c-0.7-0.7-1.5-1.3-2.3-1.9c-0.5-0.3-1-0.7-1.5-1c-0.8-0.5-1.7-1-2.6-1.4
		c-0.5-0.3-1-0.5-1.6-0.7c-1-0.4-2-0.7-3-0.9c-0.5-0.1-1-0.3-1.5-0.4c-1.6-0.3-3.1-0.5-4.8-0.5c-1.6,0-3.1,0.2-4.6,0.5
		c-0.4,0.1-0.7,0.1-1.1,0.2c-1.5,0.3-2.9,0.7-4.2,1.3c-0.1,0-0.1,0.1-0.2,0.1c-0.9,0.4-1.8,0.8-2.7,1.3V38.4h21.3l11.2,28
		c1,2.4,3.3,4,5.9,4H320V96h-13.6c-0.2-0.9-0.6-1.7-0.9-2.5c-0.2-0.4-0.3-0.8-0.4-1.2c-0.6-1.4-1.3-2.8-2.2-4
		C302.7,87.9,302.5,87.7,302.3,87.4 M364.8,368.2c-9.8-11-32-38.4-32-61c0-24.8,11.4-38.4,32-38.4c20.6,0,32,13.6,32,38.4
		C396.8,329.7,374.6,357.2,364.8,368.2"/>
	<path class="st0" d="M44.8,25.6c-10.6,0-19.2,8.6-19.2,19.2S34.2,64,44.8,64S64,55.4,64,44.8S55.4,25.6,44.8,25.6 M44.8,51.2
		c-3.5,0-6.4-2.9-6.4-6.4c0-3.5,2.9-6.4,6.4-6.4c3.5,0,6.4,2.9,6.4,6.4C51.2,48.3,48.3,51.2,44.8,51.2"/>
	<path class="st0" d="M364.8,281.6c-10.6,0-19.2,8.6-19.2,19.2c0,10.6,8.6,19.2,19.2,19.2c10.6,0,19.2-8.6,19.2-19.2
		C384,290.2,375.4,281.6,364.8,281.6 M364.8,307.2c-3.5,0-6.4-2.9-6.4-6.4c0-3.5,2.9-6.4,6.4-6.4c3.5,0,6.4,2.9,6.4,6.4
		C371.2,304.3,368.3,307.2,364.8,307.2"/>
	<rect x="396.8" y="396.8" class="st0" width="12.8" height="12.8"/>
	<rect x="371.2" y="396.8" class="st0" width="12.8" height="12.8"/>
	<rect x="345.6" y="396.8" class="st0" width="12.8" height="12.8"/>
</g>
</svg>
